<mxfile host="app.diagrams.net" modified="2022-11-22T22:20:28.591Z" agent="5.0 (Windows)" etag="JX677EtNGkddlDCvIjJG" version="20.6.0" type="github">
  <diagram id="C5RBs43oDa-KdzZeNtuy" name="Page-1">
    <mxGraphModel dx="868" dy="468" grid="1" gridSize="10" guides="1" tooltips="1" connect="1" arrows="1" fold="1" page="1" pageScale="1" pageWidth="827" pageHeight="1169" math="0" shadow="0">
      <root>
        <mxCell id="WIyWlLk6GJQsqaUBKTNV-0" />
        <mxCell id="WIyWlLk6GJQsqaUBKTNV-1" parent="WIyWlLk6GJQsqaUBKTNV-0" />
        <mxCell id="6RoC8wnUZ2o8MsjhdyPu-3" value="" style="edgeStyle=orthogonalEdgeStyle;rounded=0;orthogonalLoop=1;jettySize=auto;html=1;fontSize=20;" parent="WIyWlLk6GJQsqaUBKTNV-1" source="WIyWlLk6GJQsqaUBKTNV-3" target="6RoC8wnUZ2o8MsjhdyPu-2" edge="1">
          <mxGeometry relative="1" as="geometry" />
        </mxCell>
        <mxCell id="WIyWlLk6GJQsqaUBKTNV-3" value="&lt;font style=&quot;font-size: 20px;&quot;&gt;&lt;b&gt;Inicio&lt;/b&gt;&lt;/font&gt;" style="rounded=1;whiteSpace=wrap;html=1;fontSize=12;glass=0;strokeWidth=1;shadow=0;" parent="WIyWlLk6GJQsqaUBKTNV-1" vertex="1">
          <mxGeometry x="170" y="20" width="120" height="40" as="geometry" />
        </mxCell>
        <mxCell id="WIyWlLk6GJQsqaUBKTNV-4" value="Yes" style="rounded=0;html=1;jettySize=auto;orthogonalLoop=1;fontSize=11;endArrow=block;endFill=0;endSize=8;strokeWidth=1;shadow=0;labelBackgroundColor=none;edgeStyle=orthogonalEdgeStyle;" parent="WIyWlLk6GJQsqaUBKTNV-1" source="WIyWlLk6GJQsqaUBKTNV-6" target="WIyWlLk6GJQsqaUBKTNV-10" edge="1">
          <mxGeometry y="20" relative="1" as="geometry">
            <mxPoint as="offset" />
          </mxGeometry>
        </mxCell>
        <mxCell id="WIyWlLk6GJQsqaUBKTNV-5" value="No" style="edgeStyle=orthogonalEdgeStyle;rounded=0;html=1;jettySize=auto;orthogonalLoop=1;fontSize=11;endArrow=block;endFill=0;endSize=8;strokeWidth=1;shadow=0;labelBackgroundColor=none;" parent="WIyWlLk6GJQsqaUBKTNV-1" source="WIyWlLk6GJQsqaUBKTNV-6" target="WIyWlLk6GJQsqaUBKTNV-7" edge="1">
          <mxGeometry y="10" relative="1" as="geometry">
            <mxPoint as="offset" />
          </mxGeometry>
        </mxCell>
        <mxCell id="WIyWlLk6GJQsqaUBKTNV-6" value="&lt;div&gt;temp&amp;lt; tmax&lt;/div&gt;&lt;div&gt;&amp;amp;&amp;amp; ValMAx=false&lt;br&gt;&lt;/div&gt;" style="rhombus;whiteSpace=wrap;html=1;shadow=0;fontFamily=Helvetica;fontSize=12;align=center;strokeWidth=1;spacing=6;spacingTop=-4;" parent="WIyWlLk6GJQsqaUBKTNV-1" vertex="1">
          <mxGeometry x="165" y="400" width="130" height="130" as="geometry" />
        </mxCell>
        <mxCell id="WIyWlLk6GJQsqaUBKTNV-7" value="&lt;div&gt;Foco = false&lt;/div&gt;&lt;div&gt;Valmax= true&lt;br&gt;&lt;/div&gt;" style="rounded=1;whiteSpace=wrap;html=1;fontSize=12;glass=0;strokeWidth=1;shadow=0;" parent="WIyWlLk6GJQsqaUBKTNV-1" vertex="1">
          <mxGeometry x="450" y="445" width="120" height="40" as="geometry" />
        </mxCell>
        <mxCell id="WIyWlLk6GJQsqaUBKTNV-8" value="No" style="rounded=0;html=1;jettySize=auto;orthogonalLoop=1;fontSize=11;endArrow=block;endFill=0;endSize=8;strokeWidth=1;shadow=0;labelBackgroundColor=none;edgeStyle=orthogonalEdgeStyle;" parent="WIyWlLk6GJQsqaUBKTNV-1" source="WIyWlLk6GJQsqaUBKTNV-10" target="WIyWlLk6GJQsqaUBKTNV-11" edge="1">
          <mxGeometry x="0.3333" y="20" relative="1" as="geometry">
            <mxPoint as="offset" />
          </mxGeometry>
        </mxCell>
        <mxCell id="WIyWlLk6GJQsqaUBKTNV-9" value="Yes" style="edgeStyle=orthogonalEdgeStyle;rounded=0;html=1;jettySize=auto;orthogonalLoop=1;fontSize=11;endArrow=block;endFill=0;endSize=8;strokeWidth=1;shadow=0;labelBackgroundColor=none;" parent="WIyWlLk6GJQsqaUBKTNV-1" source="WIyWlLk6GJQsqaUBKTNV-10" target="WIyWlLk6GJQsqaUBKTNV-12" edge="1">
          <mxGeometry y="10" relative="1" as="geometry">
            <mxPoint as="offset" />
          </mxGeometry>
        </mxCell>
        <mxCell id="WIyWlLk6GJQsqaUBKTNV-10" value="Bulb&lt;br&gt;burned out?" style="rhombus;whiteSpace=wrap;html=1;shadow=0;fontFamily=Helvetica;fontSize=12;align=center;strokeWidth=1;spacing=6;spacingTop=-4;" parent="WIyWlLk6GJQsqaUBKTNV-1" vertex="1">
          <mxGeometry x="175" y="585" width="110" height="110" as="geometry" />
        </mxCell>
        <mxCell id="WIyWlLk6GJQsqaUBKTNV-11" value="Repair Lamp" style="rounded=1;whiteSpace=wrap;html=1;fontSize=12;glass=0;strokeWidth=1;shadow=0;" parent="WIyWlLk6GJQsqaUBKTNV-1" vertex="1">
          <mxGeometry x="170" y="790" width="120" height="40" as="geometry" />
        </mxCell>
        <mxCell id="WIyWlLk6GJQsqaUBKTNV-12" value="Replace Bulb" style="rounded=1;whiteSpace=wrap;html=1;fontSize=12;glass=0;strokeWidth=1;shadow=0;" parent="WIyWlLk6GJQsqaUBKTNV-1" vertex="1">
          <mxGeometry x="450" y="620" width="120" height="40" as="geometry" />
        </mxCell>
        <mxCell id="6RoC8wnUZ2o8MsjhdyPu-1" value="" style="strokeWidth=2;html=1;shape=mxgraph.flowchart.document2;whiteSpace=wrap;size=0.25;" parent="WIyWlLk6GJQsqaUBKTNV-1" vertex="1">
          <mxGeometry x="560" y="320" width="100" height="60" as="geometry" />
        </mxCell>
        <mxCell id="2QSk2dZHCU5UlhM4e0q3-2" value="" style="edgeStyle=orthogonalEdgeStyle;rounded=0;orthogonalLoop=1;jettySize=auto;html=1;" edge="1" parent="WIyWlLk6GJQsqaUBKTNV-1" source="6RoC8wnUZ2o8MsjhdyPu-2" target="2QSk2dZHCU5UlhM4e0q3-0">
          <mxGeometry relative="1" as="geometry" />
        </mxCell>
        <mxCell id="6RoC8wnUZ2o8MsjhdyPu-2" value="&lt;div&gt;Vent = 0; tmin = 35; tmax=40 &lt;br&gt;&lt;/div&gt;&lt;div&gt;foco = false;&amp;nbsp; ValMax=false;&lt;br&gt;&lt;/div&gt;" style="rounded=1;whiteSpace=wrap;html=1;" parent="WIyWlLk6GJQsqaUBKTNV-1" vertex="1">
          <mxGeometry x="130" y="80" width="200" height="70" as="geometry" />
        </mxCell>
        <mxCell id="6RoC8wnUZ2o8MsjhdyPu-4" value="Assets" style="childLayout=tableLayout;recursiveResize=0;strokeColor=#98bf21;fillColor=#A7C942;shadow=1;fontSize=20;" parent="WIyWlLk6GJQsqaUBKTNV-1" vertex="1">
          <mxGeometry x="540" y="60" width="340" height="160" as="geometry" />
        </mxCell>
        <mxCell id="6RoC8wnUZ2o8MsjhdyPu-5" style="shape=tableRow;horizontal=0;startSize=0;swimlaneHead=0;swimlaneBody=0;top=0;left=0;bottom=0;right=0;dropTarget=0;collapsible=0;recursiveResize=0;expand=0;fontStyle=0;strokeColor=inherit;fillColor=#ffffff;fontSize=20;" parent="6RoC8wnUZ2o8MsjhdyPu-4" vertex="1">
          <mxGeometry width="340" height="33" as="geometry" />
        </mxCell>
        <mxCell id="6RoC8wnUZ2o8MsjhdyPu-6" value="Variable" style="connectable=0;recursiveResize=0;strokeColor=inherit;fillColor=#A7C942;align=center;fontStyle=1;fontColor=#FFFFFF;html=1;fontSize=20;" parent="6RoC8wnUZ2o8MsjhdyPu-5" vertex="1">
          <mxGeometry width="93" height="33" as="geometry">
            <mxRectangle width="93" height="33" as="alternateBounds" />
          </mxGeometry>
        </mxCell>
        <mxCell id="6RoC8wnUZ2o8MsjhdyPu-7" value="Tipo_puerto" style="connectable=0;recursiveResize=0;strokeColor=inherit;fillColor=#A7C942;align=center;fontStyle=1;fontColor=#FFFFFF;html=1;fontSize=20;" parent="6RoC8wnUZ2o8MsjhdyPu-5" vertex="1">
          <mxGeometry x="93" width="127" height="33" as="geometry">
            <mxRectangle width="127" height="33" as="alternateBounds" />
          </mxGeometry>
        </mxCell>
        <mxCell id="6RoC8wnUZ2o8MsjhdyPu-8" value="Tipo_val" style="connectable=0;recursiveResize=0;strokeColor=inherit;fillColor=#A7C942;align=center;fontStyle=1;fontColor=#FFFFFF;html=1;fontSize=20;" parent="6RoC8wnUZ2o8MsjhdyPu-5" vertex="1">
          <mxGeometry x="220" width="120" height="33" as="geometry">
            <mxRectangle width="120" height="33" as="alternateBounds" />
          </mxGeometry>
        </mxCell>
        <mxCell id="6RoC8wnUZ2o8MsjhdyPu-9" value="" style="shape=tableRow;horizontal=0;startSize=0;swimlaneHead=0;swimlaneBody=0;top=0;left=0;bottom=0;right=0;dropTarget=0;collapsible=0;recursiveResize=0;expand=0;fontStyle=0;strokeColor=inherit;fillColor=#ffffff;fontSize=20;" parent="6RoC8wnUZ2o8MsjhdyPu-4" vertex="1">
          <mxGeometry y="33" width="340" height="32" as="geometry" />
        </mxCell>
        <mxCell id="6RoC8wnUZ2o8MsjhdyPu-10" value="temp" style="connectable=0;recursiveResize=0;strokeColor=inherit;fillColor=inherit;align=center;whiteSpace=wrap;html=1;fontSize=20;" parent="6RoC8wnUZ2o8MsjhdyPu-9" vertex="1">
          <mxGeometry width="93" height="32" as="geometry">
            <mxRectangle width="93" height="32" as="alternateBounds" />
          </mxGeometry>
        </mxCell>
        <mxCell id="6RoC8wnUZ2o8MsjhdyPu-11" value="In" style="connectable=0;recursiveResize=0;strokeColor=inherit;fillColor=inherit;align=center;whiteSpace=wrap;html=1;fontSize=20;" parent="6RoC8wnUZ2o8MsjhdyPu-9" vertex="1">
          <mxGeometry x="93" width="127" height="32" as="geometry">
            <mxRectangle width="127" height="32" as="alternateBounds" />
          </mxGeometry>
        </mxCell>
        <mxCell id="6RoC8wnUZ2o8MsjhdyPu-12" value="int" style="connectable=0;recursiveResize=0;strokeColor=inherit;fillColor=inherit;align=center;whiteSpace=wrap;html=1;fontSize=20;" parent="6RoC8wnUZ2o8MsjhdyPu-9" vertex="1">
          <mxGeometry x="220" width="120" height="32" as="geometry">
            <mxRectangle width="120" height="32" as="alternateBounds" />
          </mxGeometry>
        </mxCell>
        <mxCell id="6RoC8wnUZ2o8MsjhdyPu-13" value="" style="shape=tableRow;horizontal=0;startSize=0;swimlaneHead=0;swimlaneBody=0;top=0;left=0;bottom=0;right=0;dropTarget=0;collapsible=0;recursiveResize=0;expand=0;fontStyle=1;strokeColor=inherit;fillColor=#EAF2D3;fontSize=20;" parent="6RoC8wnUZ2o8MsjhdyPu-4" vertex="1">
          <mxGeometry y="65" width="340" height="31" as="geometry" />
        </mxCell>
        <mxCell id="6RoC8wnUZ2o8MsjhdyPu-14" value="Vent" style="connectable=0;recursiveResize=0;strokeColor=inherit;fillColor=inherit;whiteSpace=wrap;html=1;fontSize=20;" parent="6RoC8wnUZ2o8MsjhdyPu-13" vertex="1">
          <mxGeometry width="93" height="31" as="geometry">
            <mxRectangle width="93" height="31" as="alternateBounds" />
          </mxGeometry>
        </mxCell>
        <mxCell id="6RoC8wnUZ2o8MsjhdyPu-15" value="out" style="connectable=0;recursiveResize=0;strokeColor=inherit;fillColor=inherit;whiteSpace=wrap;html=1;fontSize=20;" parent="6RoC8wnUZ2o8MsjhdyPu-13" vertex="1">
          <mxGeometry x="93" width="127" height="31" as="geometry">
            <mxRectangle width="127" height="31" as="alternateBounds" />
          </mxGeometry>
        </mxCell>
        <mxCell id="6RoC8wnUZ2o8MsjhdyPu-16" value="int" style="connectable=0;recursiveResize=0;strokeColor=inherit;fillColor=inherit;whiteSpace=wrap;html=1;fontSize=20;" parent="6RoC8wnUZ2o8MsjhdyPu-13" vertex="1">
          <mxGeometry x="220" width="120" height="31" as="geometry">
            <mxRectangle width="120" height="31" as="alternateBounds" />
          </mxGeometry>
        </mxCell>
        <mxCell id="6RoC8wnUZ2o8MsjhdyPu-17" value="" style="shape=tableRow;horizontal=0;startSize=0;swimlaneHead=0;swimlaneBody=0;top=0;left=0;bottom=0;right=0;dropTarget=0;collapsible=0;recursiveResize=0;expand=0;fontStyle=0;strokeColor=inherit;fillColor=#ffffff;fontSize=20;" parent="6RoC8wnUZ2o8MsjhdyPu-4" vertex="1">
          <mxGeometry y="96" width="340" height="33" as="geometry" />
        </mxCell>
        <mxCell id="6RoC8wnUZ2o8MsjhdyPu-18" value="Foco" style="connectable=0;recursiveResize=0;strokeColor=inherit;fillColor=inherit;fontStyle=0;align=center;whiteSpace=wrap;html=1;fontSize=20;" parent="6RoC8wnUZ2o8MsjhdyPu-17" vertex="1">
          <mxGeometry width="93" height="33" as="geometry">
            <mxRectangle width="93" height="33" as="alternateBounds" />
          </mxGeometry>
        </mxCell>
        <mxCell id="6RoC8wnUZ2o8MsjhdyPu-19" value="out" style="connectable=0;recursiveResize=0;strokeColor=inherit;fillColor=inherit;fontStyle=0;align=center;whiteSpace=wrap;html=1;fontSize=20;" parent="6RoC8wnUZ2o8MsjhdyPu-17" vertex="1">
          <mxGeometry x="93" width="127" height="33" as="geometry">
            <mxRectangle width="127" height="33" as="alternateBounds" />
          </mxGeometry>
        </mxCell>
        <mxCell id="6RoC8wnUZ2o8MsjhdyPu-20" value="boleano" style="connectable=0;recursiveResize=0;strokeColor=inherit;fillColor=inherit;fontStyle=0;align=center;whiteSpace=wrap;html=1;fontSize=20;" parent="6RoC8wnUZ2o8MsjhdyPu-17" vertex="1">
          <mxGeometry x="220" width="120" height="33" as="geometry">
            <mxRectangle width="120" height="33" as="alternateBounds" />
          </mxGeometry>
        </mxCell>
        <mxCell id="6RoC8wnUZ2o8MsjhdyPu-21" value="" style="shape=tableRow;horizontal=0;startSize=0;swimlaneHead=0;swimlaneBody=0;top=0;left=0;bottom=0;right=0;dropTarget=0;collapsible=0;recursiveResize=0;expand=0;fontStyle=1;strokeColor=inherit;fillColor=#EAF2D3;fontSize=20;" parent="6RoC8wnUZ2o8MsjhdyPu-4" vertex="1">
          <mxGeometry y="129" width="340" height="31" as="geometry" />
        </mxCell>
        <mxCell id="6RoC8wnUZ2o8MsjhdyPu-22" value="LCD" style="connectable=0;recursiveResize=0;strokeColor=inherit;fillColor=inherit;whiteSpace=wrap;html=1;fontSize=20;" parent="6RoC8wnUZ2o8MsjhdyPu-21" vertex="1">
          <mxGeometry width="93" height="31" as="geometry">
            <mxRectangle width="93" height="31" as="alternateBounds" />
          </mxGeometry>
        </mxCell>
        <mxCell id="6RoC8wnUZ2o8MsjhdyPu-23" value="out" style="connectable=0;recursiveResize=0;strokeColor=inherit;fillColor=inherit;whiteSpace=wrap;html=1;fontSize=20;" parent="6RoC8wnUZ2o8MsjhdyPu-21" vertex="1">
          <mxGeometry x="93" width="127" height="31" as="geometry">
            <mxRectangle width="127" height="31" as="alternateBounds" />
          </mxGeometry>
        </mxCell>
        <mxCell id="6RoC8wnUZ2o8MsjhdyPu-24" value="int y float" style="connectable=0;recursiveResize=0;strokeColor=inherit;fillColor=inherit;whiteSpace=wrap;html=1;fontSize=20;" parent="6RoC8wnUZ2o8MsjhdyPu-21" vertex="1">
          <mxGeometry x="220" width="120" height="31" as="geometry">
            <mxRectangle width="120" height="31" as="alternateBounds" />
          </mxGeometry>
        </mxCell>
        <mxCell id="2QSk2dZHCU5UlhM4e0q3-3" value="" style="edgeStyle=orthogonalEdgeStyle;rounded=0;orthogonalLoop=1;jettySize=auto;html=1;" edge="1" parent="WIyWlLk6GJQsqaUBKTNV-1" source="2QSk2dZHCU5UlhM4e0q3-0" target="2QSk2dZHCU5UlhM4e0q3-1">
          <mxGeometry relative="1" as="geometry" />
        </mxCell>
        <mxCell id="2QSk2dZHCU5UlhM4e0q3-0" value="temp=Leertemp();" style="rounded=1;whiteSpace=wrap;html=1;" vertex="1" parent="WIyWlLk6GJQsqaUBKTNV-1">
          <mxGeometry x="130" y="180" width="200" height="50" as="geometry" />
        </mxCell>
        <mxCell id="2QSk2dZHCU5UlhM4e0q3-4" value="" style="edgeStyle=orthogonalEdgeStyle;rounded=0;orthogonalLoop=1;jettySize=auto;html=1;" edge="1" parent="WIyWlLk6GJQsqaUBKTNV-1" source="2QSk2dZHCU5UlhM4e0q3-1" target="WIyWlLk6GJQsqaUBKTNV-6">
          <mxGeometry relative="1" as="geometry" />
        </mxCell>
        <mxCell id="2QSk2dZHCU5UlhM4e0q3-1" value="&amp;nbsp;Mostrar temp en LCD y serial " style="rounded=1;whiteSpace=wrap;html=1;" vertex="1" parent="WIyWlLk6GJQsqaUBKTNV-1">
          <mxGeometry x="130" y="270" width="200" height="60" as="geometry" />
        </mxCell>
        <mxCell id="2QSk2dZHCU5UlhM4e0q3-5" value="" style="rhombus;whiteSpace=wrap;html=1;" vertex="1" parent="WIyWlLk6GJQsqaUBKTNV-1">
          <mxGeometry x="480" y="510" width="80" height="80" as="geometry" />
        </mxCell>
      </root>
    </mxGraphModel>
  </diagram>
</mxfile>
